<svg width="136" height="46" viewBox="0 0 136 46" fill="none" xmlns="http://www.w3.org/2000/svg">
<path d="M15.9751 7.2312C15.7297 7.2312 15.5105 7.3876 15.4315 7.6199L10.7801 21.2489C10.5992 21.7794 9.84251 21.7633 9.68458 21.2251L5.69485 7.64367C5.62279 7.3991 5.39815 7.2312 5.14285 7.2312H0.575832C0.184833 7.2312 -0.0919308 7.61223 0.0284356 7.9833L7.03192 29.5687C7.10859 29.8056 7.32938 29.9666 7.57855 29.9666H12.3035C12.5504 29.9666 12.7696 29.8087 12.8486 29.5748L17.687 15.2229C17.8626 14.7031 18.5963 14.7 18.7757 15.2183L23.7398 29.5794C23.8203 29.811 24.0381 29.9666 24.2834 29.9666H28.8696C29.1195 29.9666 29.3411 29.8048 29.417 29.5664L36.3315 7.98176C36.4504 7.6107 36.1736 7.2312 35.7841 7.2312H31.4962C31.2401 7.2312 31.0147 7.40064 30.9434 7.64673L27.0411 21.2059C26.8855 21.7464 26.1257 21.7648 25.944 21.2328L21.2988 7.6199C21.2198 7.3876 21.0005 7.2312 20.7552 7.2312H15.9751Z" fill="white"/>
<path d="M36.8232 23.8041C36.8232 27.3982 39.7642 30.6665 44.5259 30.6665C47.108 30.6665 48.9803 29.7519 50.2399 28.6103C50.6684 28.2216 51.5608 28.5083 51.6214 29.0833C51.6406 29.2727 51.662 29.4314 51.6812 29.561C51.7188 29.8055 51.9296 29.9665 52.1765 29.9665H56.1026C56.4928 29.9665 56.5281 29.62 56.5242 29.2735C56.5166 28.6141 56.5242 27.6228 56.5242 26.3249V15.0273C56.5242 10.4986 53.8631 6.5304 46.8604 6.5304C41.5007 6.5304 38.0215 9.73505 37.3622 13.4465C37.3108 13.734 37.5048 14.0023 37.7892 14.0667L41.6057 14.9307C41.9423 15.0066 42.2666 14.7697 42.3425 14.4332C42.7864 12.4559 44.3312 10.9655 46.9072 10.9655C49.8949 10.9655 51.202 12.5065 51.202 14.4201C51.202 15.2136 50.8287 15.8676 49.5215 16.0547L43.6857 16.9409C39.8109 17.5014 36.8232 19.7423 36.8232 23.8041ZM45.5533 26.4184C43.4058 26.4184 42.239 25.0177 42.239 23.4775C42.239 21.6099 43.5929 20.6761 45.2734 20.3955L50.5419 19.6074C50.89 19.556 51.202 19.8251 51.202 20.1762V20.5358C51.202 24.971 48.5877 26.4184 45.5533 26.4184Z" fill="white"/>
<path d="M65.5743 29.9666C65.8917 29.9666 66.1493 29.709 66.1493 29.3916V0.574998C66.1493 0.257599 65.8917 0 65.5743 0H61.3086C60.9912 0 60.7336 0.257599 60.7336 0.574998V29.3916C60.7336 29.709 60.9912 29.9666 61.3086 29.9666H65.5743Z" fill="white"/>
<path d="M75.6469 29.9666C75.9643 29.9666 76.2219 29.709 76.2219 29.3916V0.574998C76.2219 0.257599 75.9643 0 75.6469 0H71.3812C71.0638 0 70.8062 0.257599 70.8062 0.574998V29.3916C70.8062 29.709 71.0638 29.9666 71.3812 29.9666H75.6469Z" fill="white"/>
<path d="M84.798 17.4568C84.4743 17.5435 84.1426 17.3364 84.1206 17.0026C83.9697 14.7301 85.2437 12.118 88.2592 11.31C91.5961 10.4159 93.8399 11.9235 94.7735 14.1696C94.8992 14.47 94.7145 14.7997 94.3998 14.884L84.798 17.4568ZM97.662 20.3255C97.3478 20.3112 97.0837 20.5519 97.0409 20.8633C96.7524 22.9884 95.5241 24.8295 92.6219 25.6072C89.565 26.4263 86.5002 24.9767 85.2931 22.0507C85.1684 21.7484 85.3526 21.4165 85.668 21.3319L100.8 17.2775C101.01 17.2211 101.145 17.0483 101.115 16.8318C101.07 16.5136 100.976 16.019 100.832 15.4807C98.9709 8.53661 93.806 5.13526 87.0419 6.9477C81.4953 8.43392 77.5869 14.4109 79.4477 21.3557C81.4413 28.7959 87.8777 31.7113 93.8302 30.1163C98.8644 28.7674 101.498 25.0251 101.854 21.0825C101.882 20.7678 101.636 20.5028 101.321 20.488L97.662 20.3255Z" fill="white"/>
<path d="M110.991 0.850205C110.991 0.53204 110.734 0.275208 110.416 0.275208H106.664C106.346 0.275208 106.089 0.53204 106.089 0.850205V3.68303C106.089 5.69015 105.015 7.23115 102.588 7.23115H101.996C101.678 7.23115 101.421 7.48798 101.421 7.80614V11.4647C101.421 11.7821 101.678 12.0397 101.996 12.0397H105.048C105.365 12.0397 105.623 12.2965 105.623 12.6147V23.4775C105.623 27.7256 108.237 30.2464 112.438 30.2464C113.932 30.2464 114.885 30.0294 115.398 29.8638C115.617 29.7941 115.753 29.584 115.753 29.354V25.9523C115.753 25.5897 115.42 25.3121 115.059 25.3566C114.706 25.3995 114.277 25.4379 113.886 25.4379C111.878 25.4379 110.991 24.5976 110.991 22.5905V12.6147C110.991 12.2965 111.248 12.0397 111.566 12.0397H115.132C115.449 12.0397 115.707 11.7821 115.707 11.4647V7.80614C115.707 7.48798 115.449 7.23115 115.132 7.23115H111.566C111.248 7.23115 110.991 6.97355 110.991 6.65615V0.850205Z" fill="white"/>
<path d="M117.744 23.673C117.473 23.7489 117.294 24.0103 117.349 24.2863C117.873 26.8746 120.472 30.6665 126.657 30.6665C132.446 30.6665 135.247 26.8385 135.247 23.384C135.247 20.0221 133.006 17.4078 128.712 16.474L125.257 15.7741C123.856 15.4942 122.969 14.6072 122.969 13.3936C122.969 11.9929 124.323 10.7792 126.237 10.7792C128.81 10.7792 129.905 12.2888 130.294 13.5446C130.397 13.8781 130.737 14.1012 131.073 14.0061L134.52 13.021C134.801 12.9405 134.98 12.6622 134.909 12.3785C134.328 10.0785 132.137 6.5304 126.237 6.5304C121.522 6.5304 117.88 9.89222 117.88 13.8597C117.88 16.9877 119.982 19.602 123.996 20.489L127.358 21.2365C129.179 21.6099 130.019 22.5437 130.019 23.7573C130.019 25.158 128.851 26.3717 126.611 26.3717C124.04 26.3717 122.538 24.9357 122.102 23.1754C122.016 22.8274 121.671 22.5851 121.325 22.6809L117.744 23.673Z" fill="white"/>
<path d="M94.9476 44.5257C94.9476 45.2632 95.5371 45.8528 96.2739 45.8528C97.0114 45.8528 97.6171 45.2632 97.6171 44.5257C97.6171 43.789 97.0114 43.1833 96.2739 43.1833C95.5371 43.1833 94.9476 43.789 94.9476 44.5257Z" fill="white"/>
<path d="M98.5802 43.5927C98.5802 44.8538 99.6121 46 101.283 46C102.118 46 102.742 45.7271 103.181 45.3698C103.37 45.2165 103.76 45.4664 103.809 45.7048C103.83 45.8068 103.892 45.7547 103.995 45.7547H105.122C105.364 45.7547 105.551 45.5323 105.528 45.2916C105.509 45.0792 105.492 44.8032 105.492 44.4766V40.5137C105.492 38.9252 104.558 37.533 102.102 37.533C100.298 37.533 99.1016 38.5672 98.8026 39.8007C98.7566 39.9901 98.8877 40.1695 99.077 40.2124L100.058 40.4348C100.282 40.4854 100.497 40.3251 100.573 40.1082C100.781 39.5148 101.302 39.0885 102.118 39.0885C103.166 39.0885 103.625 39.629 103.625 40.3006C103.625 40.5789 103.494 40.8081 103.035 40.8741L100.988 41.1853C99.6283 41.3816 98.5802 42.1674 98.5802 43.5927ZM101.643 44.5096C100.889 44.5096 100.48 44.0182 100.48 43.4777C100.48 42.8229 100.955 42.4956 101.545 42.3967L103.268 42.1391C103.456 42.1107 103.625 42.2564 103.625 42.4465C103.625 44.0021 102.707 44.5096 101.643 44.5096Z" fill="white"/>
<path d="M110.499 35.5182C110.566 35.5182 110.628 35.5205 110.685 35.5236C110.94 35.5366 111.187 35.3472 111.187 35.0919V34.2156C111.187 34.0707 111.103 33.9396 110.962 33.9044C110.772 33.8568 110.498 33.8154 110.188 33.8154C108.549 33.8154 107.403 34.8964 107.403 36.6812V37.395C107.403 37.6074 107.232 37.7783 107.02 37.7783H106.394C106.183 37.7783 106.011 37.95 106.011 38.1616V39.0494C106.011 39.261 106.183 39.4328 106.394 39.4328H107.02C107.232 39.4328 107.403 39.6045 107.403 39.8161V45.3714C107.403 45.583 107.575 45.7547 107.787 45.7547H108.936C109.148 45.7547 109.319 45.583 109.319 45.3714V39.8161C109.319 39.6045 109.491 39.4328 109.702 39.4328H110.787C110.999 39.4328 111.17 39.261 111.17 39.0494V38.1616C111.17 37.95 110.999 37.7783 110.787 37.7783H109.702C109.491 37.7783 109.319 37.6074 109.319 37.395V36.7303C109.319 35.7482 109.991 35.5182 110.499 35.5182Z" fill="white"/>
<path d="M116.524 38.0436C116.524 37.8611 116.394 37.7016 116.213 37.6878C116.151 37.6832 116.086 37.6802 116.016 37.6802C115.369 37.6802 114.785 37.8734 114.344 38.2253C114.158 38.374 113.707 38.2368 113.707 37.9983C113.707 37.8772 113.608 37.7783 113.487 37.7783H112.24C112.028 37.7783 111.857 37.95 111.857 38.1616V45.3713C111.857 45.5829 112.028 45.7547 112.24 45.7547H113.373C113.585 45.7547 113.756 45.5829 113.756 45.3713V41.9551C113.756 40.4647 114.427 39.6129 115.902 39.6129C115.96 39.6129 116.019 39.6145 116.079 39.6175C116.314 39.6283 116.524 39.4504 116.524 39.215V38.0436Z" fill="white"/>
<path d="M118.803 45.7547C119.015 45.7547 119.187 45.583 119.187 45.3714V38.1617C119.187 37.9501 119.015 37.7783 118.803 37.7783H117.686C117.475 37.7783 117.303 37.9501 117.303 38.1617V45.3714C117.303 45.583 117.475 45.7547 117.686 45.7547H118.803ZM117.008 34.9785C117.008 35.6662 117.565 36.2067 118.237 36.2067C118.924 36.2067 119.481 35.6662 119.481 34.9785C119.481 34.29 118.924 33.7334 118.237 33.7334C117.565 33.7334 117.008 34.29 117.008 34.9785Z" fill="white"/>
<path d="M124.273 39.2856C125.258 39.2856 125.799 39.8046 126.065 40.3765C126.16 40.5827 126.391 40.7077 126.604 40.6303L127.583 40.2722C127.768 40.2048 127.874 40.007 127.805 39.8222C127.371 38.6546 126.217 37.533 124.257 37.533C121.964 37.533 120.179 39.3016 120.179 41.758C120.179 44.1822 121.964 46 124.306 46C126.212 46 127.373 44.8768 127.851 43.7376C127.93 43.5497 127.824 43.342 127.633 43.2722L126.686 42.9287C126.479 42.8536 126.253 42.9701 126.151 43.1664C125.875 43.7015 125.308 44.2643 124.306 44.2643C123.11 44.2643 122.079 43.3634 122.079 41.758C122.079 40.1534 123.11 39.2856 124.273 39.2856Z" fill="white"/>
<path d="M128.303 43.5927C128.303 44.8538 129.335 46 131.006 46C131.841 46 132.465 45.7271 132.904 45.3698C133.093 45.2165 133.483 45.4664 133.532 45.7048C133.553 45.8068 133.614 45.7547 133.718 45.7547H134.845C135.087 45.7547 135.274 45.5323 135.252 45.2916C135.232 45.0792 135.215 44.8032 135.215 44.4766V40.5137C135.215 38.9252 134.281 37.533 131.825 37.533C130.021 37.533 128.824 38.5672 128.526 39.8007C128.48 39.9901 128.61 40.1695 128.8 40.2124L129.781 40.4348C130.005 40.4854 130.22 40.3251 130.296 40.1082C130.504 39.5148 131.025 39.0885 131.841 39.0885C132.889 39.0885 133.347 39.629 133.347 40.3006C133.347 40.5789 133.217 40.8081 132.758 40.8741L130.711 41.1853C129.351 41.3816 128.303 42.1674 128.303 43.5927ZM131.366 44.5096C130.612 44.5096 130.203 44.0182 130.203 43.4777C130.203 42.8229 130.678 42.4956 131.268 42.3967L132.991 42.1391C133.178 42.1107 133.347 42.2564 133.347 42.4465C133.347 44.0021 132.43 44.5096 131.366 44.5096Z" fill="white"/>
</svg>
