<svg width="13" height="22" viewBox="0 0 13 22" xmlns="http://www.w3.org/2000/svg">
<path d="M5.14047 3.49234C5.14047 3.11344 5.44439 2.80603 5.81898 2.80603H7.03817C7.4132 2.80603 7.71667 3.11344 7.71667 3.49234C7.71667 3.87124 7.4132 4.17866 7.03817 4.17866H5.81898C5.44439 4.17866 5.14047 3.87124 5.14047 3.49234Z" />
<path d="M6.42857 18.7365C6.75678 18.7365 7.02315 18.4671 7.02315 18.1351C7.02315 17.8026 6.75678 17.5332 6.42857 17.5332C6.09992 17.5332 5.83355 17.8026 5.83355 18.1351C5.83355 18.4671 6.09992 18.7365 6.42857 18.7365Z" />
<path fill-rule="evenodd" clip-rule="evenodd" d="M2.66145 0C1.19136 0 0 1.20507 0 2.69209V18.7365C0 20.2235 1.19136 21.4286 2.66145 21.4286H10.1957C11.6658 21.4286 12.8571 20.2235 12.8571 18.7365V2.69209C12.8571 1.20507 11.6658 0 10.1957 0H2.66145ZM1.35701 2.69209C1.35701 1.96333 1.94098 1.37263 2.66145 1.37263H10.1957C10.9162 1.37263 11.5001 1.96333 11.5001 2.69209V18.7365C11.5001 19.4652 10.9162 20.0559 10.1957 20.0559H2.66145C1.94098 20.0559 1.35701 19.4652 1.35701 18.7365V15.9809H10.4108C10.7854 15.9809 11.0893 15.6735 11.0893 15.2946C11.0893 14.9157 10.7854 14.6083 10.4108 14.6083H1.35701V2.69209Z" />
</svg>
