<svg width="14" height="20" viewBox="0 0 14 20" xmlns="http://www.w3.org/2000/svg">
<path d="M3.28042 5.74468C2.9291 5.74468 2.64406 6.03059 2.64406 6.38298C2.64406 6.73537 2.9291 7.02128 3.28042 7.02128H10.2535C10.6048 7.02128 10.8899 6.73537 10.8899 6.38298C10.8899 6.03059 10.6048 5.74468 10.2535 5.74468H3.28042Z" />
<path d="M2.64406 9.3617C2.64406 9.00931 2.9291 8.7234 3.28042 8.7234H10.2535C10.6048 8.7234 10.8899 9.00931 10.8899 9.3617C10.8899 9.7141 10.6048 10 10.2535 10H3.28042C2.9291 10 2.64406 9.7141 2.64406 9.3617Z" />
<path d="M3.28042 11.7021C2.9291 11.7021 2.64406 11.988 2.64406 12.3404C2.64406 12.6928 2.9291 12.9787 3.28042 12.9787H10.2535C10.6048 12.9787 10.8899 12.6928 10.8899 12.3404C10.8899 11.988 10.6048 11.7021 10.2535 11.7021H3.28042Z" />
<path fill-rule="evenodd" clip-rule="evenodd" d="M2.33333 0C1.04486 0 0 1.04804 0 2.34043L0.0306581 17.6617C0.0314867 18.9511 1.07221 20 2.35985 20C2.68342 20 2.93945 19.7756 3.0132 19.4934L3.01527 19.4855C3.08404 19.2079 3.33428 19.0039 3.62968 19.0039C3.8505 19.0039 4.04605 19.1174 4.15998 19.2931C4.34807 19.5819 4.73461 20 5.3225 20C5.90998 20 6.29611 19.5828 6.4842 19.2936C6.59896 19.1174 6.79451 19.0039 7.01533 19.0039C7.23615 19.0039 7.43129 19.1174 7.54563 19.2931C7.73372 19.5819 8.12027 20 8.70816 20C9.29605 20 9.68259 19.5819 9.87027 19.2936C9.98461 19.1174 10.1802 19.0039 10.401 19.0039C10.696 19.0039 10.9462 19.2075 11.0154 19.4847C11.0895 19.7864 11.3597 20 11.6708 20C12.9585 20 14 18.9507 14 17.6596V2.34043C14 1.04804 12.9551 0 11.6667 0C11.3535 0 11.0821 0.21609 11.01 0.520279C10.9387 0.793717 10.6893 0.996094 10.3939 0.996094C10.1715 0.996094 9.97508 0.882231 9.86115 0.706865C9.67223 0.418467 9.28569 0 8.69697 0C8.10825 0 7.72171 0.418467 7.5332 0.70645C7.41886 0.882231 7.22248 0.996094 7 0.996094C6.77752 0.996094 6.58114 0.882231 6.46721 0.706865C6.27829 0.418467 5.89175 0 5.30303 0C4.71431 0 4.32777 0.418467 4.13926 0.70645C4.02492 0.882231 3.82854 0.996094 3.60606 0.996094C3.30859 0.996094 3.05794 0.791223 2.98875 0.514877C2.9146 0.213182 2.64447 0 2.33333 0ZM11.01 0.520279L11.0117 0.514046L11.629 0.668218L11.01 0.520279ZM1.27273 2.34043C1.27273 1.88165 1.56191 1.49102 1.96751 1.34142C2.30143 1.89952 2.91004 2.27269 3.60606 2.27269C4.27515 2.27269 4.86429 1.92694 5.20401 1.40625C5.24089 1.34973 5.27652 1.31192 5.30303 1.29031C5.32955 1.31192 5.36518 1.34973 5.40205 1.40625C5.74219 1.92736 6.33132 2.27269 7 2.27269C7.66909 2.27269 8.25823 1.92694 8.59795 1.40625C8.63482 1.34973 8.67045 1.31192 8.69697 1.29031C8.72348 1.31192 8.75912 1.34973 8.79599 1.40625C9.13613 1.92736 9.72526 2.27269 10.3939 2.27269C11.09 2.27269 11.6986 1.89952 12.0325 1.34142C12.4377 1.49102 12.7273 1.88165 12.7273 2.34043V17.6596C12.7273 18.1184 12.4389 18.5081 12.0366 18.6577C11.7035 18.1005 11.0962 17.7273 10.401 17.7273C9.73189 17.7273 9.14358 18.0743 8.80469 18.5954C8.76906 18.6503 8.73426 18.6877 8.70816 18.7093C8.68206 18.6877 8.64725 18.6503 8.61162 18.5954C8.27273 18.0743 7.68484 17.7273 7.01533 17.7273C6.34541 17.7273 5.75793 18.0743 5.41862 18.5954C5.38299 18.6507 5.3486 18.6877 5.3225 18.7093C5.2964 18.6877 5.2616 18.6503 5.22597 18.5954C4.88707 18.0743 4.29877 17.7273 3.62968 17.7273C2.93448 17.7273 2.32712 18.1005 1.99402 18.6577C1.59132 18.5081 1.30339 18.1188 1.30339 17.6575L1.27273 8.46617V2.34043Z" />
</svg>
