<svg width="22" height="14" viewBox="0 0 22 14" xmlns="http://www.w3.org/2000/svg">
<path fill-rule="evenodd" clip-rule="evenodd" d="M3.16922 14C1.64537 14 0.525391 12.6536 0.525391 11.143V2.85699C0.525391 1.34636 1.64537 0 3.16922 0H18.9084C20.4327 0 21.5523 1.34636 21.5523 2.85699V11.143C21.5523 12.6536 20.4327 14 18.9084 14H3.16922ZM1.87835 11.143C1.87835 12.0406 2.52004 12.647 3.16922 12.647H18.9084C19.5576 12.647 20.1993 12.0406 20.1993 11.143V9.32408H2.0281C1.97657 9.32408 1.92636 9.31836 1.87835 9.30735V11.143ZM20.1993 6.11652V7.97112H2.0281C1.97657 7.97112 1.92636 7.97685 1.87835 7.98786V2.85699C1.87835 1.95942 2.52004 1.35296 3.16922 1.35296H18.9084C19.5576 1.35296 20.1993 1.95942 20.1993 2.85699V4.76356H3.42774C3.05427 4.76356 2.75126 5.06657 2.75126 5.44004C2.75126 5.81351 3.05427 6.11652 3.42774 6.11652H20.1993Z"/>
</svg>
