<svg width="22" height="19" viewBox="0 0 22 19"  xmlns="http://www.w3.org/2000/svg">
<path d="M4.62461 2.50819L4.62462 2.50821C4.64257 2.59431 4.65732 2.66444 4.67427 2.72879L4.62461 2.50819ZM4.62461 2.50819C4.62458 2.50804 4.62455 2.50788 4.62451 2.50773M4.62461 2.50819L4.62451 2.50773M4.62451 2.50773C4.59635 2.37274 4.54984 2.17949 4.50341 2.0377C4.49187 1.99444 4.47901 1.95173 4.46488 1.90961C4.19274 1.09878 3.44054 0.5 2.53777 0.5C1.57192 0.5 0.7793 1.1844 0.560643 2.0827C0.520936 2.24583 0.5 2.41602 0.5 2.5905C0.5 2.79247 0.550735 3.0228 0.589244 3.17529C0.623163 3.3096 0.672462 3.47161 0.673584 3.47321L0.964052 4.5852L1.3567 6.23698C1.3567 6.23698 1.3567 6.23698 1.3567 6.23698C1.63298 7.39925 1.90858 8.56171 2.18421 9.72434L2.18422 9.72438L2.1844 9.72515L2.18441 9.72518L2.18461 9.72603C2.68674 11.844 3.18899 13.9625 3.69543 16.0801L3.69543 16.0801C3.81304 16.5718 3.97516 17.1092 4.28987 17.5515C4.62127 18.0171 5.10507 18.3544 5.80033 18.4649C6.50074 18.5762 7.07395 18.4165 7.54411 18.0743C7.99163 17.7486 8.31784 17.2773 8.58741 16.8173L8.58747 16.8171L8.67577 16.6664L8.6758 16.6663C9.15463 15.8485 9.62455 15.0463 10.1432 14.284L9.72985 14.0027L10.1432 14.284C10.6247 13.5764 10.9641 13.4184 11.1618 13.4207C11.3621 13.4231 11.7029 13.5921 12.1792 14.3118L12.5961 14.0358L12.1792 14.3118C12.4982 14.7939 12.7935 15.2952 13.0966 15.8098L13.0986 15.8132C13.3333 16.2118 13.5727 16.6184 13.8253 17.0175M4.62451 2.50773L17.8369 1.01679L17.8371 1.01672L17.8392 1.01583L18.0333 1.47662M13.8253 17.0175C13.8253 17.0175 13.8253 17.0175 13.8252 17.0175L14.2478 16.7502L13.8253 17.0175ZM13.8253 17.0175C14.1002 17.4521 14.4569 17.7751 14.8899 17.9651C15.3211 18.1544 15.7943 18.1971 16.2812 18.127L16.2812 18.1269C16.7843 18.0544 17.2153 17.8516 17.551 17.5274C17.8843 17.2057 18.0992 16.7885 18.2138 16.323L17.7283 16.2035M17.7283 16.2035L18.2138 16.323L18.3702 15.6877L18.3704 15.6869C19.4129 11.4523 20.4565 7.21326 21.439 2.9588M17.7283 16.2035L17.8847 15.5682C18.9274 11.3327 19.9702 7.09692 20.9518 2.84627M17.7283 16.2035C17.5351 16.9881 17.029 17.5139 16.2098 17.6321L20.9518 2.84627M21.439 2.9588C21.6174 2.18629 21.3946 1.47605 20.8855 1.01841C20.3822 0.565863 19.6553 0.410292 18.9188 0.615144L18.9188 0.615155C18.5403 0.720447 18.179 0.872659 17.8521 1.01038L17.8394 1.01576L18.0333 1.47662M21.439 2.9588C21.439 2.9588 21.439 2.95879 21.439 2.95878L20.9518 2.84627M21.439 2.9588L20.9518 2.84627M18.0333 1.47662C18.3688 1.33529 18.7053 1.19355 19.0528 1.09686L18.031 1.47758L18.0333 1.47662ZM17.6017 1.11522C16.9732 1.37461 16.3488 1.6447 15.729 1.91283L15.7277 1.91337L15.7274 1.91349L15.7273 1.91353L15.7272 1.9136L15.727 1.91366L15.7266 1.91385C14.3278 2.51895 12.9519 3.11376 11.5412 3.58573L11.6998 4.05989L11.5412 3.58573C10.0543 4.08317 8.47234 4.3965 6.90728 4.53279C6.17326 4.59671 5.73833 4.46149 5.44059 4.21435C5.12646 3.95361 4.87675 3.49717 4.67427 2.72881L17.6017 1.11522Z" stroke="#00C9B6" stroke-linejoin="round"/>
<path d="M4.13514 2.61028L4.13514 2.61026C4.10737 2.47708 4.06281 2.29537 4.02385 2.18011C4.01415 2.1424 4.00313 2.10525 3.99086 2.0687C3.78206 1.44659 3.21034 1 2.53777 1C1.81842 1 1.21443 1.51087 1.04646 2.20095C1.01612 2.32561 1 2.4561 1 2.5905C1 2.86068 1.14572 3.30415 1.15503 3.33796L1.44922 4.46419L1.84315 6.12135C2.11947 7.28378 2.3951 8.44639 2.67072 9.609L2.67092 9.60981C3.17313 11.7282 3.67534 13.8465 4.18171 15.9638C4.41183 16.9258 4.76062 17.7934 5.87882 17.9711C7.02086 18.1526 7.63387 17.4556 8.15601 16.5645L8.24431 16.4137C8.72168 15.5984 9.20004 14.7814 9.72985 14.0027C10.7188 12.5493 11.6196 12.5599 12.5961 14.0358C12.9236 14.5307 13.2255 15.0434 13.5274 15.5561C13.7634 15.9569 13.9995 16.3578 14.2478 16.7502C14.7058 17.4743 15.384 17.7511 16.2098 17.6321C17.029 17.5139 17.5351 16.9881 17.7283 16.2035L17.8847 15.5682C18.9274 11.3327 19.9702 7.09692 20.9518 2.84627C21.234 1.62473 20.2344 0.76818 19.0528 1.09686C18.7053 1.19355 18.3688 1.33529 18.0333 1.47662L18.031 1.47758C17.9515 1.51108 17.872 1.54456 17.7924 1.57739C17.1678 1.83518 16.5467 2.10388 15.9255 2.37256L15.9254 2.37263L15.9251 2.37275C14.5296 2.9764 13.1342 3.58001 11.6998 4.05989C10.1726 4.57084 8.55167 4.89148 6.95066 5.0309C5.32865 5.17216 4.6142 4.46303 4.19077 2.85619C4.16992 2.77704 4.15258 2.6939 4.13514 2.61028Z" fill="white"/>
</svg>
