<svg width="23" height="20" viewBox="0 0 23 20" xmlns="http://www.w3.org/2000/svg">
<path d="M5.57897 3.39997L5.57897 3.39998C5.59649 3.48148 5.61029 3.54505 5.62599 3.60285L5.57897 3.39997ZM5.57897 3.39997C5.55154 3.27234 5.50592 3.08782 5.45949 2.94967C5.44796 2.90791 5.43514 2.86668 5.42107 2.82603C5.14458 2.02677 4.38677 1.45 3.49171 1.45C2.53452 1.45 1.73415 2.10939 1.5116 2.99647C1.47127 3.15721 1.45 3.32497 1.45 3.49694C1.45 3.69989 1.50204 3.92657 1.53954 4.07065C1.57179 4.19453 1.62118 4.35328 1.62226 4.35442L1.90305 5.39736L2.2837 6.95097C2.2837 6.95097 2.2837 6.95097 2.2837 6.95097C2.55169 8.04484 2.81903 9.13889 3.08641 10.2331L3.08641 10.2332M5.57897 3.39997L3.08641 10.2332M3.08641 10.2332L3.08681 10.2348L3.08681 10.2348L3.08717 10.2363C3.57413 12.2291 4.06125 14.2226 4.55241 16.2152L4.55242 16.2153L3.08641 10.2332ZM9.41258 16.9331L9.41251 16.9332C9.14911 17.3694 8.82605 17.8237 8.37997 18.1387C7.91027 18.4704 7.34022 18.623 6.6489 18.5163C6.64889 18.5163 6.64888 18.5163 6.64888 18.5163L6.73271 17.9728L9.41258 16.9331ZM9.41258 16.9331L9.49824 16.7912L9.49826 16.7912M9.41258 16.9331L9.49826 16.7912M9.49826 16.7912C9.96299 16.0211 10.4174 15.2685 10.9187 14.5537L10.4684 14.2379M9.49826 16.7912L10.4684 14.2379M10.4684 14.2379L10.9187 14.5537C11.3806 13.8951 11.6927 13.7677 11.8569 13.7695C12.0237 13.7714 12.3375 13.9088 12.7945 14.5789L13.2489 14.269L12.7945 14.5789C13.1025 15.0306 13.3879 15.5006 13.6821 15.9852L13.6821 15.9853M10.4684 14.2379L13.6821 15.9853M13.6821 15.9853L13.6834 15.9873M13.6821 15.9853L13.6834 15.9873M13.6834 15.9873L13.6844 15.9891C13.9118 16.3638 14.1446 16.7474 14.3903 17.1241C14.6649 17.5453 15.0216 17.8584 15.4534 18.0423C15.8826 18.2251 16.3512 18.2654 16.8305 18.1984L16.8306 18.1984C17.3272 18.1289 17.7572 17.934 18.0945 17.6181C18.4298 17.3041 18.6456 16.8968 18.7604 16.4444L18.9121 15.8465L18.9125 15.8451C19.9237 11.8599 20.9361 7.86977 21.8894 3.86503M13.6834 15.9873L18.3131 1.94028L18.5213 2.44937L18.3132 1.94025L18.315 1.93949L18.3151 1.93946L18.3288 1.93386C18.6452 1.80453 18.9984 1.66015 19.3688 1.56017L19.3688 1.56016C20.0964 1.3638 20.8206 1.51089 21.3273 1.9528C21.843 2.40267 22.0703 3.10495 21.8894 3.86503M21.8894 3.86503C21.8894 3.86503 21.8894 3.86504 21.8894 3.86505L21.3543 3.73767L21.8894 3.86503ZM18.0851 2.03285C17.475 2.27717 16.8689 2.53152 16.2677 2.78383L16.2661 2.78454L16.2658 2.78464L16.2658 2.78466L16.2653 2.78485C16.2652 2.78489 16.2651 2.78493 16.265 2.78498C14.9078 3.35459 13.5754 3.91343 12.2096 4.35677L12.3794 4.8799L12.2096 4.35677C10.7715 4.82357 9.24085 5.11776 7.72615 5.24574C7.02038 5.30538 6.61455 5.17786 6.3428 4.95901C6.05591 4.72797 5.82021 4.31795 5.626 3.60287L18.0851 2.03285Z" stroke="#00C9B6" stroke-width="1.1"/>
</svg>
