<svg width="20" height="15" viewBox="0 0 20 15" xmlns="http://www.w3.org/2000/svg">
<path d="M0 1.23511C0 0.682861 0.447754 0.235107 1 0.235107H19C19.5522 0.235107 20 0.682861 20 1.23511C20 1.78735 19.5522 2.23511 19 2.23511H1C0.447754 2.23511 0 1.78735 0 1.23511Z" />
<path d="M0 13.2351C0 12.6829 0.447754 12.2351 1 12.2351H19C19.5522 12.2351 20 12.6829 20 13.2351C20 13.7874 19.5522 14.2351 19 14.2351H1C0.447754 14.2351 0 13.7874 0 13.2351Z" />
<path d="M1 6.23511C0.447754 6.23511 0 6.68286 0 7.23511C0 7.78735 0.447754 8.23511 1 8.23511H19C19.5522 8.23511 20 7.78735 20 7.23511C20 6.68286 19.5522 6.23511 19 6.23511H1Z" />
</svg>
