<svg width="24" height="22" viewBox="0 0 24 22" xmlns="http://www.w3.org/2000/svg">
<path d="M1.74016 21.4999C1.62641 21.4999 1.51016 21.4761 1.40266 21.4261C1.12016 21.2949 0.940159 21.0111 0.940159 20.6999V4.49988C0.940159 2.29364 2.73392 0.499878 4.94016 0.499878H19.0602C21.2664 0.499878 23.0602 2.29364 23.0602 4.49988V13.9399C23.0602 16.1461 21.2664 17.9399 19.0602 17.9399H6.24896L2.25632 21.3111C2.10882 21.4348 1.92506 21.4998 1.74006 21.4998L1.74016 21.4999ZM4.94016 2.09987C3.61642 2.09987 2.54016 3.17612 2.54016 4.49987V18.9773L5.44016 16.5286C5.58391 16.4061 5.76765 16.3398 5.95642 16.3398H19.0601C20.3838 16.3398 21.4601 15.2636 21.4601 13.9398V4.49982C21.4601 3.17608 20.3838 2.09982 19.0601 2.09982L4.94016 2.09987Z" />
</svg>
