<svg width="18" height="13" viewBox="0 0 18 13" xmlns="http://www.w3.org/2000/svg">
<path fill-rule="evenodd" clip-rule="evenodd" d="M2.41462 13C1.01291 13 0 11.7251 0 10.3184V2.68164C0 1.2749 1.01291 0 2.41462 0H15.5854C16.9876 0 18 1.2749 18 2.68164V2.68945C18 3.06104 17.7052 3.36231 17.3418 3.36231C16.9778 3.36231 16.6831 3.06104 16.6831 2.68945V2.68164C16.6831 1.86914 16.1233 1.34473 15.5854 1.34473H2.41462C1.87722 1.34473 1.31693 1.86914 1.31693 2.68164V10.3184C1.31693 11.1309 1.87722 11.6553 2.41462 11.6553H15.5854C16.1233 11.6553 16.6831 11.1309 16.6831 10.3184V10.3105C16.6831 9.93897 16.9778 9.6377 17.3418 9.6377C17.7052 9.6377 18 9.93897 18 10.3105V10.3184C18 11.7251 16.9876 13 15.5854 13H2.41462ZM12.8647 9.67175L10.2246 6.98181C10.0869 6.84607 10 6.65515 10 6.44666C10 6.23718 10.0859 6.04773 10.2246 5.9115L12.8647 3.22156C13.1548 2.92615 13.625 2.92615 13.9155 3.22156C14.2056 3.51746 14.2056 3.99646 13.9155 4.29236L12.5371 5.69666H16.9097C17.3242 5.69666 17.6597 6.03259 17.6597 6.44666C17.6597 6.86072 17.3242 7.19666 16.9097 7.19666H12.5371C12.5371 7.19666 13.6255 8.30505 13.9155 8.60095C14.2056 8.89685 13.9155 9.67175 13.9155 9.67175C13.9155 9.67175 13.1548 9.96716 12.8647 9.67175Z" />
</svg>
