<svg width="20" height="20" viewBox="0 0 20 20" xmlns="http://www.w3.org/2000/svg">
<path d="M1.5 9.75C1.5 5.19385 5.19385 1.5 9.75 1.5C12.4526 1.5 14.8525 2.80029 16.3569 4.80908C16.4116 4.88232 16.3452 4.98193 16.2559 4.96191L15.2148 4.72412C14.811 4.63184 14.4087 4.88477 14.3169 5.28857C14.2246 5.69238 14.4771 6.09424 14.8809 6.18652L17.7603 6.84326C17.8408 6.86182 17.9204 6.86621 17.9985 6.85889C18.3105 6.85889 18.6021 6.66455 18.709 6.35303L19.6699 3.56006C19.8047 3.16846 19.5962 2.7417 19.2046 2.60693C18.813 2.47217 18.3862 2.68066 18.2515 3.07227L17.896 4.104C17.8696 4.18213 17.7646 4.19629 17.7173 4.12891C15.9512 1.63135 13.0415 0 9.75 0C4.36523 0 0 4.36523 0 9.75C0 15.1348 4.36523 19.5 9.75 19.5C13.6699 19.5 17.0493 17.187 18.5981 13.8511C18.8213 13.3706 18.4487 12.8506 17.9194 12.8506C17.604 12.8506 17.3228 13.0435 17.186 13.3276C15.853 16.0923 13.0244 18 9.75 18C5.19385 18 1.5 14.3062 1.5 9.75Z" />
<path d="M9.36426 6.19629C9.36426 5.78223 9.02832 5.44629 8.61426 5.44629C8.2002 5.44629 7.86426 5.78223 7.86426 6.19629V10.5742C7.86426 11.5405 8.64795 12.3242 9.61426 12.3242H12.8198C13.2344 12.3242 13.5698 11.9883 13.5698 11.5742C13.5698 11.1597 13.2344 10.8242 12.8198 10.8242H9.61426C9.47607 10.8242 9.36426 10.7124 9.36426 10.5742V6.19629Z" />
</svg>
