<svg width="23" height="13" viewBox="0 0 23 13"  xmlns="http://www.w3.org/2000/svg">
<path fill-rule="evenodd" clip-rule="evenodd" d="M2.41462 13C1.01291 13 0 11.7251 0 10.3184V2.68164C0 1.2749 1.01291 0 2.41462 0H15.5854C16.9876 0 18 1.2749 18 2.68164V2.68945C18 3.06104 17.7052 3.36231 17.3418 3.36231C16.9778 3.36231 16.6831 3.06104 16.6831 2.68945V2.68164C16.6831 1.86914 16.1233 1.34473 15.5854 1.34473H2.41462C1.87722 1.34473 1.31693 1.86914 1.31693 2.68164V10.3184C1.31693 11.1309 1.87722 11.6553 2.41462 11.6553H15.5854C16.1233 11.6553 16.6831 11.1309 16.6831 10.3184V10.3105C16.6831 9.93897 16.9778 9.6377 17.3418 9.6377C17.7052 9.6377 18 9.93897 18 10.3105V10.3184C18 11.7251 16.9876 13 15.5854 13H2.41462ZM19.7949 9.67175L22.4351 6.98181C22.5728 6.84607 22.6597 6.65515 22.6597 6.44666C22.6597 6.23718 22.5737 6.04773 22.4351 5.9115L19.7949 3.22156C19.5049 2.92615 19.0347 2.92615 18.7441 3.22156C18.4541 3.51746 18.4541 3.99646 18.7441 4.29236L20.1226 5.69666H15.75C15.3354 5.69666 15 6.03259 15 6.44666C15 6.86072 15.3354 7.19666 15.75 7.19666H20.1226C20.1226 7.19666 19.0342 8.30505 18.7441 8.60095C18.4541 8.89685 18.7441 9.67175 18.7441 9.67175C18.7441 9.67175 19.5049 9.96716 19.7949 9.67175Z" />
</svg>
